<?xml version="1.0" standalone="no"?>
<!DOCTYPE svg PUBLIC "-//W3C//DTD SVG 20010904//EN"
 "http://www.w3.org/TR/2001/REC-SVG-20010904/DTD/svg10.dtd">
<svg version="1.0" xmlns="http://www.w3.org/2000/svg"
 width="512.000000pt" height="512.000000pt" viewBox="0 0 512.000000 512.000000"
 preserveAspectRatio="xMidYMid meet">
<metadata>
Created by potrace 1.11, written by Peter Selinger 2001-2013
</metadata>
<g transform="translate(0.000000,512.000000) scale(0.100000,-0.100000)"
fill="#000000" stroke="none">
<path d="M0 2560 l0 -2560 2560 0 2560 0 0 2560 0 2560 -1015 0 -1015 0 0
-1360 0 -1360 815 0 815 0 0 -951 0 -951 -67 6 c-38 4 -889 65 -1893 136
-1004 72 -1831 132 -1837 135 -10 3 -13 176 -13 815 l0 810 818 2 c449 2 816
6 815 11 -2 4 -3 615 -3 1357 l0 1350 -1270 0 -1270 0 0 -2560z"/>
</g>
</svg>
